<svg xmlns="http://www.w3.org/2000/svg" version="1.1" xmlns:xlink="http://www.w3.org/1999/xlink" xmlns:svgjs="http://svgjs.dev/svgjs" width="1440" height="560" preserveAspectRatio="none" viewBox="0 0 1440 560"><g mask="url(&quot;#SvgjsMask1002&quot;)" fill="none"><path d="M9.18 140C-18.59 81.85 -22.46 36.52 11.67 0C42.95 -33.48 75.83 0 140 0C210 0 210 0 280 0C350 0 350 0 420 0C490 0 490 0 560 0C630 0 630 0 700 0C770 0 770 0 840 0C892.1 0 897.09 -12.05 944.19 0C967.09 5.86 960.92 35.81 980 35.81C1002.16 35.81 999.61 6.92 1026.67 0C1069.61 -10.98 1073.34 0 1120 0C1154.22 0 1168.42 -21.67 1188.44 0C1233.1 48.33 1216.99 71.22 1249.37 140C1252.77 147.22 1254.39 152 1260 152C1266.17 152 1268.47 147.56 1272.92 140C1313.19 71.56 1301.19 53.16 1349.44 0C1364.73 -16.84 1374.72 0 1400 0C1470 0 1505 -35 1540 0C1575 35 1540 70 1540 140C1540 205.72 1573.88 238.12 1540 271.43C1503.88 306.95 1469.5 273.48 1400 277.67C1398.43 277.76 1397.85 278.84 1397.85 280C1397.85 281.14 1399.05 281.02 1400 282.26C1452.84 351.02 1450.61 353.01 1505.43 420C1520.61 438.55 1534.63 431.6 1540 453.33C1551.92 501.6 1570.27 536.94 1540 560C1500.27 590.27 1470 560 1400 560C1330 560 1330 560 1260 560C1190 560 1190 560 1120 560C1055.09 560 1014.13 593.31 990.18 560C963.8 523.31 1022.87 485.61 1019.33 420C1017.78 391.31 999.28 371.39 980 371.39C961.19 371.39 947.01 391.45 943.16 420C934.29 485.75 982.96 521.44 954.55 560C931.38 591.44 897.28 560 840 560C770 560 770 560 700 560C630 560 630 560 560 560C490 560 490 560 420 560C350 560 350 560 280 560C210 560 210 560 140 560C105 560 99.7 573.61 70 560C29.7 541.53 19.46 534.75 0 495.83C-15.54 464.75 0 457.91 0 420C0 387.5 -21.14 373.03 0 355C48.86 313.33 71.9 331.19 140 300.59C155.36 293.69 166.92 288.56 166.92 280C166.92 272.62 150.82 278.32 140 268.71C71.95 208.32 45.58 216.21 9.18 140" stroke="rgba(246, 248, 250, 1)" stroke-width="2"></path><path d="M840 135.76C837.77 135.76 836.17 137 835.48 140C819.51 209.12 804.96 215.14 806.67 280C807.22 300.69 822.47 311.11 840 311.11C860.03 311.11 881.23 302.62 881.79 280C883.35 217.07 864.3 209.26 844.24 140C843.41 137.14 842.15 135.76 840 135.76" stroke="rgba(246, 248, 250, 1)" stroke-width="2"></path><path d="M1120 272.73C1114.76 272.73 1109.02 276.2 1109.02 280C1109.02 283.96 1114.8 288.24 1120 288.24C1124.41 288.24 1128.24 283.99 1128.24 280C1128.24 276.24 1124.37 272.73 1120 272.73" stroke="rgba(246, 248, 250, 1)" stroke-width="2"></path><path d="M700 381.82C682.4 381.82 665 398.89 665 420C665 449.09 682.36 482.22 700 482.22C717.73 482.22 735.74 449.04 735.74 420C735.74 398.84 717.77 381.82 700 381.82" stroke="rgba(246, 248, 250, 1)" stroke-width="2"></path><path d="M66.56 140C43.59 78.84 36.87 44.62 60.28 0C73.59 -25.38 100.14 0 140 0C184.85 0 214.37 -27.28 229.69 0C253.67 42.72 244.08 79.71 218.6 140C199.23 185.84 178.69 212.26 140 212.26C102.67 212.26 83.45 184.97 66.56 140" stroke="rgba(246, 248, 250, 1)" stroke-width="2"></path><path d="M420 130.67C391.52 66.66 367.03 47.49 367.03 0C367.03 -17.84 393.51 0 420 0C474.44 0 479.03 -11.08 528.89 0C549.03 4.48 546.24 31.11 560 31.11C571.45 31.11 563.02 3.62 579.31 0C633.02 -11.93 639.65 0 700 0C770 0 770 0 840 0C851.39 0 862.79 -5.62 862.79 0C862.79 9.23 853.22 16.5 840 29.7C783.11 86.5 742.23 74.41 722.58 140C704.73 199.56 771.99 217.42 765 280C760.7 318.44 731.34 309.89 700 342.05C663.11 379.89 628.54 376.91 628.54 420C628.54 479.4 653.97 497.39 700 547.04C718.87 567.39 758.33 556.72 758.33 560C758.33 563.2 729.16 560 700 560C630 560 630 560 560 560C490 560 490 560 420 560C350 560 350 560 280 560C231.78 560 215.15 584.57 183.56 560C145.15 530.12 168.07 501.14 140 451.11C128.79 431.14 105 433.03 105 420C105 409.24 124.41 414.85 140 403.53C211.91 351.36 208.23 345.34 280 293.02C292.96 283.57 298.4 291.4 309.47 280C368.4 219.27 364.23 213.89 420 148.75C424.16 143.89 429.33 144.45 429.33 140C429.33 135.41 422.67 136.66 420 130.67" stroke="rgba(246, 248, 250, 1)" stroke-width="2"></path><path d="M950.3 140C955.12 122.92 965.22 128.69 980 117.21C1050.07 62.81 1060.27 2.19 1120 8.24C1172.8 13.59 1159.25 76.61 1205.06 140C1229.25 173.49 1231.02 202 1260 202C1291.88 202 1297.5 174.6 1326.77 140C1367.5 91.86 1357.96 82.71 1400 36.52C1421.67 12.71 1423.93 7.89 1454.19 0C1493.93 -10.37 1523.7 -26.6 1540 0C1566.6 43.4 1540 70 1540 140C1540 170 1560.86 188.18 1540 200C1490.86 227.84 1461.86 194.08 1400 219.33C1363.86 234.08 1344 249.89 1344 280C1344 309.58 1373.86 307.76 1400 338.71C1432.97 377.76 1428.16 381.98 1462.22 420C1498.16 460.13 1515.72 451.29 1540 495C1554.61 521.29 1558.57 546.07 1540 560C1515.24 578.57 1490.32 574.8 1453.33 560C1420.32 546.8 1426.24 504 1400 504C1374.5 504 1381.74 547.25 1349.85 560C1311.74 575.25 1304.93 560 1260 560C1190 560 1190 560 1120 560C1086.91 560 1063.66 582.46 1053.82 560C1032.99 512.46 1039.43 483.99 1058.65 420C1072.52 373.84 1087.03 377.84 1120 339.71C1147.56 307.84 1179.71 308.93 1179.71 280C1179.71 252.71 1151.68 227.27 1120 227.27C1082.02 227.27 1079.83 253.1 1040.39 280C1009.83 300.85 1008.77 322.78 980 322.78C955.59 322.78 938.61 308.17 934.03 280C923.76 216.78 932.14 204.31 950.3 140" stroke="rgba(246, 248, 250, 1)" stroke-width="2"></path><path d="M772.98 420C772.98 380.65 806.58 350 840 350C873.25 350 906.32 380.71 906.32 420C906.32 476.28 873.29 541.15 840 541.15C806.62 541.15 772.98 476.22 772.98 420" stroke="rgba(246, 248, 250, 1)" stroke-width="2"></path><path d="M123.93 140C110.52 72.85 102.31 57.33 108.89 0C110.34 -12.67 124.44 0 140 0C157.5 0 173.29 -13.91 175 0C181.89 56.09 172.21 73.16 157.19 140C154.71 151.06 148.46 155.81 140 155.81C131.83 155.81 126.08 150.75 123.93 140" stroke="rgba(246, 248, 250, 1)" stroke-width="2"></path><path d="M1041.46 140C1041.46 112.13 1085.83 76.86 1120 76.86C1145.48 76.86 1160.76 110.47 1160.76 140C1160.76 162.95 1143.64 181.82 1120 181.82C1083.99 181.82 1041.46 164.61 1041.46 140" stroke="rgba(246, 248, 250, 1)" stroke-width="2"></path><path d="M1380.62 140C1380.62 126.93 1385.47 112.61 1400 112.61C1443.62 112.61 1496.92 127.81 1496.92 140C1496.92 152 1445.14 161 1400 161C1386.99 161 1380.62 151.13 1380.62 140" stroke="rgba(246, 248, 250, 1)" stroke-width="2"></path><path d="M493.68 280C506.91 239.89 519.25 228.39 560 217C622.41 199.56 643.44 200.53 700 222.35C725.11 232.03 723.33 253.69 723.33 280C723.33 293.65 711.03 290.51 700 302.27C645.4 360.51 610.42 352.47 592.08 420C575.42 481.33 640.82 512.79 630 560C624.78 582.79 595 560 560 560C490 560 490 560 420 560C350 560 350 560 280 560C270.66 560 264.53 567.99 261.33 560C236.53 497.99 217.77 481.93 224 420C227.1 389.14 252.46 374.42 280 374.42C306.25 374.42 305.18 397.93 331.58 420C375.18 456.46 377.48 491.49 420 491.49C458.21 491.49 477.49 464.62 493.04 420C514.33 358.88 473.43 341.39 493.68 280" stroke="rgba(246, 248, 250, 1)" stroke-width="2"></path><path d="M1231.18 280C1231.18 262.91 1245.43 252 1260 252C1274.92 252 1290.15 262.72 1290.15 280C1290.15 313.01 1274.79 352.59 1260 352.59C1245.3 352.59 1231.18 313.21 1231.18 280" stroke="rgba(246, 248, 250, 1)" stroke-width="2"></path><path d="M810.21 420C810.21 402.51 825.15 388.89 840 388.89C854.78 388.89 869.47 402.54 869.47 420C869.47 445.02 854.8 473.85 840 473.85C825.17 473.85 810.21 444.99 810.21 420" stroke="rgba(246, 248, 250, 1)" stroke-width="2"></path><path d="M1097.98 420C1098.24 402.76 1105 391.18 1120 391.18C1152.3 391.18 1159.95 399.59 1192.59 420C1229.95 443.36 1233.77 443.74 1260 478.71C1286.28 513.74 1297.61 531.37 1297.61 560C1297.61 572.02 1278.8 560 1260 560C1190 560 1190 560 1120 560C1118.72 560 1117.65 561.24 1117.45 560C1106.64 491.24 1096.97 487.17 1097.98 420" stroke="rgba(246, 248, 250, 1)" stroke-width="2"></path><path d="M1335.83 420C1335.83 407.4 1371.41 395.16 1400 395.16C1413 395.16 1419.01 407.5 1419.01 420C1419.01 432.76 1413.15 445.67 1400 445.67C1371.56 445.67 1335.83 432.66 1335.83 420" stroke="rgba(246, 248, 250, 1)" stroke-width="2"></path><path d="M1508.89 560C1508.89 553.52 1530.28 536.67 1540 536.67C1545.83 536.67 1546.67 555 1540 560C1531.11 566.67 1508.89 565.18 1508.89 560" stroke="rgba(246, 248, 250, 1)" stroke-width="2"></path></g><defs><mask id="SvgjsMask1002"><rect width="1440" height="560" fill="#ffffff"></rect></mask></defs></svg>