<svg xmlns="http://www.w3.org/2000/svg" version="1.1" xmlns:xlink="http://www.w3.org/1999/xlink" xmlns:svgjs="http://svgjs.dev/svgjs" width="1440" height="560" preserveAspectRatio="none" viewBox="0 0 1440 560"><g mask="url(&quot;#SvgjsMask1003&quot;)" fill="none"><path d="M140 106.15C120.2 123.91 103.17 116.1 98.93 140C87.75 203.03 94.99 212.71 109.15 280C115.52 310.29 113.87 321.97 140 335.15C199.29 365.05 212.71 374.65 280 366.15C352.71 356.96 351.56 335.48 420 299.76C434.1 292.4 444.58 294.71 445.07 280C447.22 214.83 436.74 209.56 425.28 140C424.2 133.47 423.5 133.46 420 127.83C380.02 63.46 338.33 41.55 338.33 0C338.33 -22.37 379.16 0 420 0C490 0 490 0 560 0C609 0 609.3 -2.98 658 0C679.3 1.3 679.08 3.9 700 8.57C770.08 24.22 777.6 43.84 840 40.65C861.3 39.56 846.16 6.16 867.39 0C916.16 -14.16 923.69 0 980 0C1050 0 1050 0 1120 0C1190 0 1190 0 1260 0C1330 0 1330 0 1400 0C1470 0 1505 -35 1540 0C1575 35 1540 70 1540 140C1540 210 1540 210 1540 280C1540 350 1540 350 1540 420C1540 490 1575 525 1540 560C1505 595 1470 560 1400 560C1330 560 1330 560 1260 560C1190 560 1190 560 1120 560C1050 560 1050 560 980 560C910 560 910 560 840 560C774.8 560 771.33 566.43 709.59 560C701.33 559.14 707.25 545.42 700 545.42C681.86 545.42 680.28 557.77 658.82 560C610.28 565.06 609.41 560 560 560C490 560 490 560 420 560C350 560 350 560 280 560C210 560 210 560 140 560C93.66 560 87.32 574.55 47.32 560C17.32 549.09 10.37 539.77 0 509.09C-13.29 469.77 0 464.54 0 420C0 350 0 350 0 280C0 210 0 210 0 140C0 70 -35 35 0 0C35 -35 70 0 140 0C197.5 0 255 -22.48 255 0C255 30.59 198.23 53.91 140 106.15" stroke="rgba(246, 248, 250, 0.6)" stroke-width="2"></path><path d="M980 117.73C963.36 117.73 946.21 126.84 946.21 140C946.21 156.13 963.55 176.3 980 176.3C995.76 176.3 1010.63 156.29 1010.63 140C1010.63 127.01 995.57 117.73 980 117.73" stroke="rgba(246, 248, 250, 0.6)" stroke-width="2"></path><path d="M1120 269.63C1111.98 270.21 1107.27 275.12 1107.27 280C1107.27 284.55 1112.76 286.11 1120 288.48C1189.12 311.11 1204.12 333.14 1260 330C1279.59 328.9 1270.94 303.42 1270.94 280C1270.94 272.87 1267.56 269.41 1260 268.89C1192.09 264.22 1188.35 264.66 1120 269.63" stroke="rgba(246, 248, 250, 0.6)" stroke-width="2"></path><path d="M560 378.72C541.3 378.72 526.46 396.54 526.46 420C526.46 463.18 540.05 512 560 512C581.22 512 608.79 461.3 608.79 420C608.79 394.66 582.47 378.72 560 378.72" stroke="rgba(246, 248, 250, 0.6)" stroke-width="2"></path><path d="M840 414.17C836.85 415.05 836.82 417.49 836.82 420C836.82 421.42 838.22 421.4 840 422.03C909.81 446.85 919.49 471.64 980 470.91C1003.85 470.62 1008.72 444.67 1008.72 420C1008.72 399.22 1001.48 380.74 980 380C917.12 377.83 908.44 395.05 840 414.17" stroke="rgba(246, 248, 250, 0.6)" stroke-width="2"></path><path d="M1400 405.15C1371.07 405.15 1338.75 400.09 1338.75 420C1338.75 456.51 1378.68 518 1400 518C1418.38 518 1418.15 465.68 1418.15 420C1418.15 409.25 1410.77 405.15 1400 405.15" stroke="rgba(246, 248, 250, 0.6)" stroke-width="2"></path><path d="M140 67.69C97.11 104.97 72.47 92.43 52.27 140C27.39 198.59 36.41 212.8 49.83 280C64.37 352.8 122.4 369.75 108.18 420C97.49 457.78 41.09 456.06 0 456.06C-13 456.06 0 438.03 0 420C0 350 0 350 0 280C0 210 0 210 0 140C0 70 -35 35 0 0C35 -35 70 0 140 0C176.67 0 213.33 -14.34 213.33 0C213.33 19.51 177.64 34.97 140 67.69" stroke="rgba(246, 248, 250, 0.6)" stroke-width="2"></path><path d="M491.32 140C504.93 91.65 515.01 70.21 560 57.27C619.35 40.21 633.09 58.91 700 80C764.34 100.28 822.5 99.8 822.5 140C822.5 191.05 760.11 200.27 700 262.5C692.49 270.27 696.75 275.17 687.27 280C626.75 310.84 619.44 333.85 560 333.85C524.46 333.85 510.05 315.96 497.31 280C475.71 219.03 473.58 203.01 491.32 140" stroke="rgba(246, 248, 250, 0.6)" stroke-width="2"></path><path d="M980 38.18C959.36 21.81 943.48 11.29 943.48 0C943.48 -7.8 961.74 0 980 0C1050 0 1050 0 1120 0C1190 0 1190 0 1260 0C1330 0 1330 0 1400 0C1470 0 1505 -35 1540 0C1575 35 1540 70 1540 140C1540 210 1540 210 1540 280C1540 350 1540 350 1540 420C1540 490 1558.26 508.26 1540 560C1533.56 578.26 1498.02 578.24 1490.59 560C1469.5 508.24 1508.63 478.91 1482.96 420C1463.33 374.97 1440 387.72 1400 352.12C1361.34 317.72 1362.41 316.47 1325.63 280C1292.41 247.07 1298.23 239.36 1260 213.33C1195.42 169.36 1190 176.67 1120 140C1120 140 1120 140 1120 140C1050 89.09 1047.62 91.81 980 38.18" stroke="rgba(246, 248, 250, 0.6)" stroke-width="2"></path><path d="M1400 112C1391.53 112 1392 127.07 1392 140C1392 144.96 1394.9 147.78 1400 147.78C1416.4 147.78 1435 147.95 1435 140C1435 130.06 1413.03 112 1400 112" stroke="rgba(246, 248, 250, 0.6)" stroke-width="2"></path><path d="M313.33 420C361.27 375.39 370.8 340.94 420 340.94C459.13 340.94 490 376.74 490 420C490 478.49 459.65 486.77 420 544.44C411.53 556.77 408.56 558.35 393.75 560C338.56 566.13 336.88 560 280 560C210 560 210 560 140 560C118.31 560 96.62 574.96 96.62 560C96.62 517.92 97.66 466.43 140 445.93C189.35 422.04 219.38 480.29 280 471.22C306.04 467.32 291.27 440.53 313.33 420" stroke="rgba(246, 248, 250, 0.6)" stroke-width="2"></path><path d="M661.82 420C661.82 363.09 676.79 300 700 300C724.51 300 716.99 370.3 757.27 420C786.99 456.67 800.25 444.09 840 472.75C897.35 514.09 951.48 535.59 951.48 560C951.48 579.22 895.74 560 840 560C798.76 560 788.37 579.28 757.53 560C718.37 535.53 729.54 515.71 700 472.5C681.69 445.71 661.82 449.34 661.82 420" stroke="rgba(246, 248, 250, 0.6)" stroke-width="2"></path><path d="M1098.46 420C1104.89 404.8 1107.43 394.55 1120 394.55C1137.29 394.55 1152.6 399.6 1158.18 420C1175.24 482.32 1179.72 507.09 1165.29 560C1160.63 577.09 1142.64 560 1120 560C1085 560 1053.46 582.46 1050 560C1042.69 512.46 1069.89 487.53 1098.46 420" stroke="rgba(246, 248, 250, 0.6)" stroke-width="2"></path><path d="M0 87.5C1.4 87.5 5.6 113.73 5.6 140C5.6 169.98 1.4 200 0 200C-1.4 200 0 170 0 140C0 113.75 -1.4 87.5 0 87.5" stroke="rgba(246, 248, 250, 0.6)" stroke-width="2"></path><path d="M140 29.23C88.22 29.23 29.17 7.43 29.17 0C29.17 -7.18 84.59 0 140 0C155.83 0 171.67 -6.19 171.67 0C171.67 8.42 159.47 29.23 140 29.23" stroke="rgba(246, 248, 250, 0.6)" stroke-width="2"></path><path d="M557.36 140C557.51 137.95 558.04 136.82 560 136.82C573.36 136.82 586.22 128.02 588 140C596.83 199.61 593.23 216.03 581.21 280C579.23 290.51 569.91 288.97 560 288.97C554.08 288.97 549.67 286.66 549.55 280C548.35 212.18 552.28 209.54 557.36 140" stroke="rgba(246, 248, 250, 0.6)" stroke-width="2"></path><path d="M1226.06 140C1226.06 124.34 1243.3 102.67 1260 102.67C1276.27 102.67 1292 124.2 1292 140C1292 151.76 1276.11 157.78 1260 157.78C1243.14 157.78 1226.06 151.89 1226.06 140" stroke="rgba(246, 248, 250, 0.6)" stroke-width="2"></path><path d="M1540 29.17C1530.51 29.17 1508.18 8.4 1508.18 0C1508.18 -6.19 1531.7 -7.61 1540 0C1547.61 6.98 1546.42 29.17 1540 29.17" stroke="rgba(246, 248, 250, 0.6)" stroke-width="2"></path><path d="M1380.31 280C1380.31 263.93 1382.21 248.25 1400 245C1462.06 233.66 1482.06 236.35 1540 250.83C1552.06 253.85 1540 265.41 1540 280C1540 323.75 1565.17 364.07 1540 367.5C1495.17 373.61 1467.9 336.29 1400 299.09C1388.05 292.54 1380.31 290.97 1380.31 280" stroke="rgba(246, 248, 250, 0.6)" stroke-width="2"></path><path d="M368.89 420C368.89 398.18 396.42 382.12 420 382.12C438.75 382.12 453.54 399.27 453.54 420C453.54 448.03 439.7 479.63 420 479.63C397.38 479.63 368.89 446.94 368.89 420" stroke="rgba(246, 248, 250, 0.6)" stroke-width="2"></path><path d="M245 560C245 559.15 262.99 556.59 280 556.59C282.68 556.59 284.38 559.05 284.38 560C284.38 560.75 282.19 560 280 560C262.5 560 245 560.85 245 560" stroke="rgba(246, 248, 250, 0.6)" stroke-width="2"></path><path d="M805.48 560C805.48 549.18 821.37 523.48 840 523.48C861.97 523.48 886.67 549.78 886.67 560C886.67 568.04 863.34 560 840 560C822.74 560 805.48 567.44 805.48 560" stroke="rgba(246, 248, 250, 0.6)" stroke-width="2"></path></g><defs><mask id="SvgjsMask1003"><rect width="1440" height="560" fill="#ffffff"></rect></mask></defs></svg>