<svg xmlns="http://www.w3.org/2000/svg" version="1.1" xmlns:xlink="http://www.w3.org/1999/xlink" xmlns:svgjs="http://svgjs.dev/svgjs" width="1440" height="560" preserveAspectRatio="none" viewBox="0 0 1440 560"><g mask="url(&quot;#SvgjsMask1003&quot;)" fill="none"><path d="M214.88 0C257.49 29.38 247.18 96.55 280 96.55C313.07 96.55 303.59 29.71 346.67 0C373.59 -18.57 383.34 0 420 0C490 0 490 0 560 0C630 0 630 0 700 0C770 0 770 0 840 0C910 0 910 0 980 0C1050 0 1050 0 1120 0C1190 0 1190 0 1260 0C1330 0 1330 0 1400 0C1446.66 0 1454.03 -15.72 1493.33 0C1524.03 12.28 1529.16 23.48 1540 56C1552.49 93.48 1540 98 1540 140C1540 180 1547.58 181.67 1540 220C1533.74 251.67 1518.16 247.98 1512.31 280C1499.9 347.98 1493.59 354.79 1503.48 420C1507.43 446.06 1533.33 436.97 1540 462.53C1551.59 506.97 1568.73 540 1540 560C1498.73 588.73 1470 560 1400 560C1330 560 1330 560 1260 560C1190 560 1190 560 1120 560C1050 560 1050 560 980 560C930.37 560 912.54 585.45 880.73 560C842.54 529.45 864.81 501.38 840 448C832.27 431.38 824.92 435.98 815.65 420C776.22 351.98 770.26 353.29 742.61 280C717.44 213.29 728.49 209.2 710 140C707.19 129.48 705.87 120.56 700 120.56C693.42 120.56 687.74 128.24 685.11 140C669.92 207.96 670.17 209.62 664.36 280C658.61 349.62 687.09 359.52 662 420C634.91 485.3 622.21 495.57 560 531.56C501.21 565.57 490 545.78 420 560C420 560 420 560 420 560C350 560 350 560 280 560C226.93 560 173.85 584.41 173.85 560C173.85 522.49 225.24 496.28 280 436.15C288.99 426.28 301.36 428.14 301.36 420C301.36 411.78 293.06 405.02 280 403.42C212.38 395.14 209.95 399.05 140 400.24C69.95 401.43 36.57 439.58 0 408.17C-33.43 379.46 0 344.09 0 280C0 210 0 210 0 140C0 70 -35 35 0 0C35 -35 70 0 140 0C177.44 0 187.49 -18.89 214.88 0" stroke="rgba(255, 255, 255, 1)" stroke-width="2"></path><path d="M420 96.25C388.55 96.25 346.32 123.52 346.32 140C346.32 154.61 384.81 158.42 420 158.42C435.11 158.42 446.92 152.07 446.92 140C446.92 120.99 438.85 96.25 420 96.25" stroke="rgba(255, 255, 255, 1)" stroke-width="2"></path><path d="M1120 82.86C1089.5 82.86 1065.1 111.14 1065.1 140C1065.1 169.5 1089.35 199.57 1120 199.57C1159.22 199.57 1204.85 169.37 1204.85 140C1204.85 111.02 1159.37 82.86 1120 82.86" stroke="rgba(255, 255, 255, 1)" stroke-width="2"></path><path d="M980 248.5C964.12 248.5 949.27 260.24 949.27 280C949.27 333.26 963.65 394.55 980 394.55C996.51 394.55 1015 332.42 1015 280C1015 259.39 996.99 248.5 980 248.5" stroke="rgba(255, 255, 255, 1)" stroke-width="2"></path><path d="M1260 202.76C1239.36 202.76 1207.91 247.95 1207.91 280C1207.91 300.23 1236.32 307.32 1260 307.32C1274.95 307.32 1285.17 296.4 1285.17 280C1285.17 244.12 1277.99 202.76 1260 202.76" stroke="rgba(255, 255, 255, 1)" stroke-width="2"></path><path d="M105 0C123.33 1.67 128.73 -1.26 140 12.73C185.12 68.74 170.83 84.37 217.78 140C240.83 167.31 245.66 167.67 280 178.62C346.77 199.91 355.01 215.19 420 204.47C472.12 195.88 512.17 182.05 514.23 140C517.17 79.82 417.26 38.98 430 0C440.14 -31.02 495 0 560 0C630 0 630 0 700 0C716.15 0 732.31 -5.22 732.31 0C732.31 6.44 712.98 8.4 700 23.33C652.14 78.4 636.03 74.36 610.64 140C586.39 202.69 600.39 210.03 600.73 280C601.07 350.03 625.15 356.44 612 420C604.78 454.88 593.99 464.49 560 476.88C497.99 499.49 479.06 464.26 420 490C383.7 505.82 403.72 542.78 369.28 560C333.72 577.78 324.64 560 280 560C246.15 560 212.31 575.57 212.31 560C212.31 536.08 242.39 516.52 280 481.03C316.58 446.52 360.68 450.77 360.68 420C360.68 388.94 326.54 370.22 280 357.37C216.2 339.75 210 358.68 140 359.06C70 359.43 44.78 384.16 0 358.87C-25.22 344.63 0 319.43 0 280C0 210 0 210 0 140C0 70 -30 40 0 0C22.5 -30 53.33 -4.7 105 0" stroke="rgba(255, 255, 255, 1)" stroke-width="2"></path><path d="M760 140C764.77 87.8 799.66 93.04 840 46.67C860.56 23.04 854.53 9.09 881.79 0C924.53 -14.25 930.89 0 980 0C1050 0 1050 0 1120 0C1190 0 1260 -2.85 1260 0C1260 2.86 1178.06 -19.42 1120 11.43C1046.3 50.58 1057.36 74.95 996.47 140C987.36 149.74 989.17 151.32 980 161C922.88 221.32 919.68 218.64 863.9 280C849.68 295.64 851.49 315 840 315C828.89 315 827.2 298.6 818.7 280C787.2 211.1 754.12 204.47 760 140" stroke="rgba(255, 255, 255, 1)" stroke-width="2"></path><path d="M1400 49C1340.93 49 1260 12.6 1260 0C1260 -11.9 1330 0 1400 0C1410.21 0 1420.42 -6.81 1420.42 0C1420.42 17.69 1421.14 49 1400 49" stroke="rgba(255, 255, 255, 1)" stroke-width="2"></path><path d="M1112.22 280C1114.72 275.81 1116.24 274.04 1120 274.04C1123.39 274.04 1122.64 277.9 1126.51 280C1192.64 315.88 1199.32 350 1260 350C1298.31 350 1295.36 317.48 1324.49 280C1365.36 227.4 1362.53 169.84 1400 169.84C1437.21 169.84 1457.95 219.21 1473.85 280C1490.66 344.29 1447.22 357.55 1465.43 420C1480.29 470.97 1514.54 459.04 1540 506.84C1551.82 529.04 1559.26 552.68 1540 560C1489.26 579.26 1470 560 1400 560C1330 560 1330 560 1260 560C1227.06 560 1225.99 566.1 1194.12 560C1155.99 552.7 1156.33 533.19 1120 533.19C1091.88 533.19 1094.42 554.41 1065.22 560C1024.42 567.81 1022.61 560 980 560C962.18 560 944.36 569.49 944.36 560C944.36 543 962.96 534.01 980 507.03C1007.17 464.01 1007.18 463.98 1032.79 420C1073.29 350.46 1071.12 348.79 1112.22 280" stroke="rgba(255, 255, 255, 1)" stroke-width="2"></path><path d="M560 89.09C534.31 89.09 513.33 30.43 513.33 0C513.33 -14.12 536.66 0 560 0C589.69 0 619.39 -15.89 619.39 0C619.39 28.65 587.34 89.09 560 89.09" stroke="rgba(255, 255, 255, 1)" stroke-width="2"></path><path d="M810 140C810 120.48 821.94 105 840 105C867.82 105 901.76 118.07 901.76 140C901.76 167.39 865.58 203.64 840 203.64C819.7 203.64 810 169.8 810 140" stroke="rgba(255, 255, 255, 1)" stroke-width="2"></path><path d="M980 75.12C953.01 75.12 934.03 24.68 934.03 0C934.03 -12.88 957.01 0 980 0C1015.82 0 1051.63 -15.34 1051.63 0C1051.63 22.22 1011.81 75.12 980 75.12" stroke="rgba(255, 255, 255, 1)" stroke-width="2"></path><path d="M0 223.24C50.93 181.4 71.52 161.15 140 165C211.52 169.02 205.82 216.31 280 238.97C345.82 259.07 351.32 238.26 420 250.53C466.12 258.77 480.9 248.13 509.6 280C550.9 325.86 536.27 342.61 560 406C562.47 412.61 562 413.31 562 420C562 421.4 561.47 422.19 560 422.19C490.47 422.19 490 421.1 420 420C420 420 420 420 420 420C350 365.66 358.18 339.83 280 311.32C218.18 288.77 209.98 318.31 140 317.88C69.98 317.44 57.81 325.22 0 309.58C-12.19 306.28 0 294.79 0 280C0 251.62 -19.07 238.9 0 223.24" stroke="rgba(255, 255, 255, 1)" stroke-width="2"></path><path d="M1363.82 280C1384.44 255.62 1382.05 227.21 1400 227.21C1417.83 227.21 1431.11 249.94 1435.38 280C1444.8 346.33 1438.37 351.35 1427.39 420C1420.68 461.99 1431.71 488.43 1400 501.29C1348.01 522.37 1329.42 498.43 1260 487.88C1189.42 477.15 1183.29 484.01 1120 458.72C1098.37 450.07 1090.16 440.28 1090.16 420C1090.16 395.64 1095.15 373.44 1120 369.44C1180.07 359.78 1201.38 414.18 1260 392.68C1323.29 369.46 1314.44 338.36 1363.82 280" stroke="rgba(255, 255, 255, 1)" stroke-width="2"></path><path d="M250.77 560C250.77 549.67 264.21 525.9 280 525.9C298.1 525.9 318.55 550.25 318.55 560C318.55 567.3 299.27 560 280 560C265.38 560 250.77 566.72 250.77 560" stroke="rgba(255, 255, 255, 1)" stroke-width="2"></path><path d="M1501.11 560C1501.11 557.76 1524.09 551.14 1540 551.14C1543.53 551.14 1543.61 559.18 1540 560C1524.16 563.61 1501.11 562.19 1501.11 560" stroke="rgba(255, 255, 255, 1)" stroke-width="2"></path></g><defs><mask id="SvgjsMask1003"><rect width="1440" height="560" fill="#ffffff"></rect></mask></defs></svg>