<svg xmlns="http://www.w3.org/2000/svg" version="1.1" xmlns:xlink="http://www.w3.org/1999/xlink" xmlns:svgjs="http://svgjs.dev/svgjs" width="1440" height="560" preserveAspectRatio="none" viewBox="0 0 1440 560"><g mask="url(&quot;#SvgjsMask1001&quot;)" fill="none"><path d="M849.93 638.07C969.82 549.26 897.1 107.15 1108.07 99.98 1319.05 92.81 1485.84 298.05 1624.36 301.58" stroke="rgba(255, 255, 255, 0.74)" stroke-width="2"></path><path d="M761.26 638.89C877.7 587.53 824.92 222.93 1051.17 220.45 1277.42 217.97 1480.08 386.77 1630.99 388.45" stroke="rgba(255, 255, 255, 0.74)" stroke-width="2"></path><path d="M155.25 659.02C304.84 637.93 381.87 290.97 631.73 287.4 881.59 283.83 869.97 357.4 1108.2 357.4 1346.44 357.4 1464.28 287.59 1584.68 287.4" stroke="rgba(255, 255, 255, 0.74)" stroke-width="2"></path><path d="M204.18 616.14C329.95 606.21 414.76 355.85 635.82 354.71 856.88 353.57 851.65 424.71 1067.47 424.71 1283.29 424.71 1389.79 354.94 1499.11 354.71" stroke="rgba(255, 255, 255, 0.74)" stroke-width="2"></path><path d="M589.02 670.02C708.07 618.34 660.5 245.19 886.7 244.72 1112.9 244.25 1317.72 517.85 1482.06 524.72" stroke="rgba(255, 255, 255, 0.74)" stroke-width="2"></path></g><defs><mask id="SvgjsMask1001"><rect width="1440" height="560" fill="#ffffff"></rect></mask></defs></svg>