<svg xmlns="http://www.w3.org/2000/svg" version="1.1" xmlns:xlink="http://www.w3.org/1999/xlink" xmlns:svgjs="http://svgjs.dev/svgjs" width="1440" height="560" preserveAspectRatio="none" viewBox="0 0 1440 560"><g mask="url(&quot;#SvgjsMask1061&quot;)" fill="none"><rect width="1440" height="560" x="0" y="0" fill="rgba(255, 255, 255, 0.1)"></rect><path d="M0,458.004C84.89,456.824,123.693,349.093,191.612,298.154C253.02,252.098,342.664,240.65,379.558,173.338C416.977,105.068,399.741,21.107,385.404,-55.413C371.552,-129.344,342.715,-197.817,298.602,-258.74C251.249,-324.138,198.552,-390.258,122.773,-418.126C44.815,-446.795,-44.606,-445.019,-121.316,-413.163C-194.654,-382.707,-237.262,-310.551,-286.43,-248.193C-333.312,-188.735,-392.194,-132.872,-401.564,-57.736C-410.877,16.944,-373.892,88.358,-336.546,153.696C-301.753,214.566,-247.072,256.507,-195.067,303.53C-132.274,360.308,-84.648,459.181,0,458.004" fill="rgba(166, 166, 166, 0.1)"></path><path d="M1440 930.781C1508.059 936.2660000000001 1562.551 875.579 1613.853 830.521 1659.1779999999999 790.713 1696.024 743.12 1717.745 686.842 1738.575 632.871 1741.279 575.106 1734.6109999999999 517.641 1727.7930000000001 458.881 1713.63 400.86400000000003 1678.997 352.908 1642.374 302.196 1595.24 252.615 1534.002 239.85700000000003 1473.9 227.336 1418.519 268.933 1359.658 286.381 1300.983 303.773 1234.375 301.524 1188.67 342.221 1140.714 384.923 1120.875 449.48900000000003 1106.262 512.016 1090.579 579.12 1065.9270000000001 655.592 1101.662 714.514 1137.372 773.395 1225.248 766.789 1283.27 803.877 1341.08 840.829 1371.611 925.269 1440 930.781" fill="rgba(255, 255, 255, 0.1)"></path></g><defs><mask id="SvgjsMask1061"><rect width="1440" height="560" fill="#ffffff"></rect></mask></defs></svg>